<?xml version="1.0" encoding="UTF-8"?>
<!DOCTYPE svg PUBLIC "-//W3C//DTD SVG 1.1//EN" "http://www.w3.org/Graphics/SVG/1.1/DTD/svg11.dtd">
<!-- Creator: CorelDRAW 2018 (64-Bit) -->
<svg xmlns="http://www.w3.org/2000/svg" xml:space="preserve" width="1024px" height="1024px" version="1.1" style="shape-rendering:geometricPrecision; text-rendering:geometricPrecision; image-rendering:optimizeQuality; fill-rule:evenodd; clip-rule:evenodd"
viewBox="0 0 736.36 736.36"
 xmlns:xlink="http://www.w3.org/1999/xlink">
 <defs>
  <style type="text/css">
   <![CDATA[
    .fil0 {fill:#288C38}
    .fil1 {fill:#FBC800;fill-rule:nonzero}
   ]]>
  </style>
 </defs>
 <g id="Layer_x0020_1">
  <metadata id="CorelCorpID_0Corel-Layer"/>
  <rect class="fil0" width="736.36" height="736.36"/>
  <path class="fil1" d="M502 138.4c43.91,-32.26 85.59,47.37 41.67,79.63 -58.76,43.15 -137.07,90.53 -185.79,145.11 75.59,12.27 204.46,46.02 204.46,129.48 0,74.97 -76.54,144.94 -182.26,145.22 -182.75,0.48 -206.06,-109.9 -206.06,-237.56 0,-105.15 20.69,-223.99 50.17,-278.62 25.86,-47.93 113.97,-14.04 89.88,34.82 -18.6,37.73 -44.91,128.56 -54.36,212.51 -11.53,102.4 3.18,225.67 125.84,219.16 50.41,-2.67 99.6,-33.88 99.6,-76.03 0,-52.79 -145.71,-89.3 -190.84,-102.36 -21.93,-6.34 -23.86,-38.52 -11.03,-57.4 53.15,-78.21 142.64,-158.08 218.72,-213.96z"/>
 </g>
</svg>
